# xmcd
#
# Track frame offsets: 
#        182
#        14577
#        29435
#        45807
#        57855
#        71202
#        86912
#        105505
#        125430
#        139722
#        155470
#        168547
#
# Disc length: 2428 seconds
#
# Revision: 6
# Processed by: cddbd v1.5.2PL0 Copyright (c) Steve Scherf et al.
# Submitted via: ExactAudioCopyFreeDBPlugin 1.0
#
DISCID=9f097a0c
DTITLE=Various Artist - Didn't It Blow Your Mind!:  Soul Hits of the 
DTITLE='70s [Rhino series]
DYEAR=1995
DGENRE=SMB
TTITLE0=Clarence Carter - Patches
TTITLE1=The Stylistics - Betcha By Golly, Wow
TTITLE2=Tower of Power - You're Still a Young Man
TTITLE3=Foster Sylvers - Misdemeanor
TTITLE4=Bobby Womack - Nobody Wants You When You're Down and Out
TTITLE5=Johnnie Taylor - Cheaper to Keep Her
TTITLE6=The O'Jays - Put Your Hands Together
TTITLE7=Lamont Dozier - Trying to Hold on to My Woman
TTITLE8=The Moments - Sexy Mama
TTITLE9=The Staple Singers - Touch a Hand, Make a Friend
TTITLE10=The Ohio Players - Skin Tight
TTITLE11=Al Green - Sha-La-La (Make Me Happy)
EXTD=
EXTT0=
EXTT1=
EXTT2=
EXTT3=
EXTT4=
EXTT5=
EXTT6=
EXTT7=
EXTT8=
EXTT9=
EXTT10=
EXTT11=
PLAYORDER=
